{"title":"Pride and Glory*2008*[BluRay][1080p][ENG, POL]","uid":5878263,"size":7921307840,"categoryP":"video","categoryS":"hd___movies","magnet":"?xt=urn:btih:5351eca34b02114ac5e9126bf35cc8950a4e685c&amp;dn=Pride+and+Glory%2A2008%2A%5BBluRay%5D%5B1080p%5D%5BENG%2C+POL%5D&amp;tr=udp%3A%2F%2Ftracker.openbittorrent.com%3A80&amp;tr=udp%3A%2F%2Fopen.demonii.com%3A1337&amp;tr=udp%3A%2F%2Ftracker.coppersurfer.tk%3A6969&amp;tr=udp%3A%2F%2Fexodus.desync.com%3A6969","seeders":3,"leechers":0,"uploader":"albedo040","files":1,"time":1286737366,"description":"Pride and Glory*2008*[BluRay][1080p][ENG, POL]\n\nGeneral information:\nCountry: USA, Germany \nRelease: 9 September 2008 (Toronto International Film Festival)\nGenre: Crime, Drama, Thriller \nDirector: Gavin O'Connor\nScreenplay: Joe Carnahan, Gavin O'Connor\nOriginal Music: Mark Isham \nCinematography by: Declan Quinn \nDuration: 2h 10mn\nLanguage: English, Polish\nSubtitles: English, Polish\nRating: 6.9/10 - 7432 votes \n\nCast:\nColin Farrell  ...  Jimmy Egan  \nEdward Norton  ...  Ray Tierney  \nJon Voight  ...  Francis Tierney, Sr.  \nNoah Emmerich  ...  Francis Tierney, Jr.  \nJennifer Ehle  ...  Abby Tierney  \nJohn Ortiz  ...  Ruben Santiago  \nFrank Grillo  ...  Eddie Carbone  \nShea Whigham  ...  Kenny Dugan  \nLake Bell  ...  Megan Egan  \nCarmen Ejogo  ...  Tasha  \nManny Perez  ...  Coco Dominguez  \nWayne Duvall  ...  Bill Avery  \nRamon Rodriguez  ...  Angel Tezo  \nRick Gonzalez  ...  Eladio Casado  \nMaximiliano HernÃƒÂ¡ndez  ...  Carlos Bragon (as Maximiliano Hernandez)  \n\nPlot:\nA saga centered on a multi-generational family of New York City Police officers. The family's moral codes are tested when Ray Tierney, investigates a case that reveals an incendiary police corruption scandal involving his own brother-in-law. For Ray, the truth is revelatory, a Pandora's Box that threatens to upend not only the Tierney legacy but the entire NYPD.\n\nSpecifications:\nGeneral\nFormat                           : Matroska\nOverall bit rate                 : 8 114 Kbps\n\nVideo\nFormat                           : AVC\nFormat/Info                      : Advanced Video Codec\nFormat profile                   : &lt;a class=&quot;__cf_email__&quot; href=&quot;/cdn-cgi/l/email-protection&quot; data-cfemail=&quot;0e466769664e423a203e&quot;&gt;[email&amp;#160;protected]&lt;/a&gt;&lt;script cf-hash='f9e31' type=&quot;text/javascript&quot;&gt;\n/* &lt;![CDATA[ */!function(){try{var t=&quot;currentScript&quot;in document?document.currentScript:function(){for(var t=document.getElementsByTagName(&quot;script&quot;),e=t.length;e--;)if(t[e].getAttribute(&quot;cf-hash&quot;))return t[e]}();if(t&amp;&amp;t.previousSibling){var e,r,n,i,c=t.previousSibling,a=c.getAttribute(&quot;data-cfemail&quot;);if(a){for(e=&quot;&quot;,r=parseInt(a.substr(0,2),16),n=2;a.length-n;n+=2)i=parseInt(a.substr(n,2),16)^r,e+=String.fromCharCode(i);e=document.createTextNode(e),c.parentNode.replaceChild(e,c)}}}catch(u){}}();/* ]]&gt; */&lt;/script&gt;\nFormat settings, CABAC           : Yes\nFormat settings, ReFrames        : 3 frames\nFormat settings, GOP             : M=4, N=29\nMuxing mode                      : Container profile=&lt;a class=&quot;__cf_email__&quot; href=&quot;/cdn-cgi/l/email-protection&quot; data-cfemail=&quot;87d2e9ece9e8f0e9c7b3a9b7&quot;&gt;[email&amp;#160;protected]&lt;/a&gt;&lt;script cf-hash='f9e31' type=&quot;text/javascript&quot;&gt;\n/* &lt;![CDATA[ */!function(){try{var t=&quot;currentScript&quot;in document?document.currentScript:function(){for(var t=document.getElementsByTagName(&quot;script&quot;),e=t.length;e--;)if(t[e].getAttribute(&quot;cf-hash&quot;))return t[e]}();if(t&amp;&amp;t.previousSibling){var e,r,n,i,c=t.previousSibling,a=c.getAttribute(&quot;data-cfemail&quot;);if(a){for(e=&quot;&quot;,r=parseInt(a.substr(0,2),16),n=2;a.length-n;n+=2)i=parseInt(a.substr(n,2),16)^r,e+=String.fromCharCode(i);e=document.createTextNode(e),c.parentNode.replaceChild(e,c)}}}catch(u){}}();/* ]]&gt; */&lt;/script&gt;\nCodec ID                         : V_MPEG4/ISO/AVC\nBit rate                         : 7 030 Kbps\nWidth                            : 1 920 pixels\nHeight                           : 1 080 pixels\nDisplay aspect ratio             : 16:9\nFrame rate                       : 23.976 fps\n\nAudio 1\nFormat                           : AC-3\nFormat/Info                      : Audio Coding 3\nMode extension                   : CM (complete main)\nCodec ID                         : A_AC3\nBit rate mode                    : Constant\nBit rate                         : 640 Kbps\nChannel(s)                       : 6 channels\nChannel positions                : Front: L C R, Side: L R, LFE\nSampling rate                    : 48.0 KHz\nStream size                      : 596 MiB (8%)\nTitle                            : English\n\nAudio 2\nFormat                           : AC-3\nFormat/Info                      : Audio Coding 3\nMode extension                   : CM (complete main)\nCodec ID                         : A_AC3\nBit rate mode                    : Constant\nBit rate                         : 448 Kbps\nChannel(s)                       : 6 channels\nChannel positions                : Front: L C R, Side: L R, LFE\nSampling rate                    : 48.0 KHz\nStream size                      : 417 MiB (6%)\nTitle                            : Polish\n\nText 1\nFormat                           : UTF-8\nCodec ID                         : S_TEXT/UTF8\nCodec ID/Info                    : UTF-8 Plain Text\nTitle                            : English\n\nText 2\nFormat                           : UTF-8\nCodec ID                         : S_TEXT/UTF8\nCodec ID/Info                    : UTF-8 Plain Text\nTitle                            : Polish\n","torrent":{"xt":"urn:btih:5351eca34b02114ac5e9126bf35cc8950a4e685c","amp;dn":"Pride+and+Glory%2A2008%2A%5BBluRay%5D%5B1080p%5D%5BENG%2C+POL%5D","amp;tr":["udp%3A%2F%2Ftracker.openbittorrent.com%3A80","udp%3A%2F%2Fopen.demonii.com%3A1337","udp%3A%2F%2Ftracker.coppersurfer.tk%3A6969","udp%3A%2F%2Fexodus.desync.com%3A6969"],"infoHash":"5351eca34b02114ac5e9126bf35cc8950a4e685c","infoHashBuffer":{"type":"Buffer","data":[83,81,236,163,75,2,17,74,197,233,18,107,243,92,200,149,10,78,104,92]},"announce":[],"urlList":[]}}